<mxfile host="app.diagrams.net" modified="2020-08-14T13:27:24.119Z" agent="5.0 (Macintosh; Intel Mac OS X 10_15_6) AppleWebKit/537.36 (KHTML, like Gecko) Chrome/84.0.4147.89 Safari/537.36" etag="Bi1Ngwp8KL9jzv_tWmdA" version="13.6.2" type="github">
  <diagram name="Page-1" id="e7e014a7-5840-1c2e-5031-d8a46d1fe8dd">
    <mxGraphModel dx="946" dy="542" grid="1" gridSize="10" guides="1" tooltips="1" connect="1" arrows="1" fold="1" page="1" pageScale="1" pageWidth="1169" pageHeight="826" background="#ffffff" math="0" shadow="0">
      <root>
        <mxCell id="0" />
        <mxCell id="1" parent="0" />
        <mxCell id="alYm1xxPZwHSLxNLYQ0k-3" value="SparkEnv" style="rounded=1;whiteSpace=wrap;html=1;arcSize=3;labelPosition=center;verticalLabelPosition=top;align=center;verticalAlign=bottom;" vertex="1" parent="1">
          <mxGeometry x="20" y="30" width="320" height="260" as="geometry" />
        </mxCell>
        <mxCell id="alYm1xxPZwHSLxNLYQ0k-5" value="sparkDriver: RpcEnv" style="rounded=1;whiteSpace=wrap;html=1;arcSize=3;labelPosition=center;verticalLabelPosition=top;align=center;verticalAlign=bottom;" vertex="1" parent="1">
          <mxGeometry x="140" y="60" width="190" height="210" as="geometry" />
        </mxCell>
        <mxCell id="alYm1xxPZwHSLxNLYQ0k-6" value="LiveListenerBus" style="rounded=1;whiteSpace=wrap;html=1;arcSize=3;labelPosition=center;verticalLabelPosition=top;align=center;verticalAlign=bottom;" vertex="1" parent="1">
          <mxGeometry x="395" y="40" width="190" height="50" as="geometry" />
        </mxCell>
        <mxCell id="alYm1xxPZwHSLxNLYQ0k-7" value="AppStatusStore" style="rounded=1;whiteSpace=wrap;html=1;arcSize=3;labelPosition=center;verticalLabelPosition=top;align=center;verticalAlign=bottom;" vertex="1" parent="1">
          <mxGeometry x="395" y="150" width="190" height="50" as="geometry" />
        </mxCell>
        <mxCell id="alYm1xxPZwHSLxNLYQ0k-8" value="SecurityManager" style="rounded=1;whiteSpace=wrap;html=1;arcSize=3;labelPosition=center;verticalLabelPosition=top;align=center;verticalAlign=bottom;" vertex="1" parent="1">
          <mxGeometry x="395" y="250" width="190" height="50" as="geometry" />
        </mxCell>
        <mxCell id="alYm1xxPZwHSLxNLYQ0k-9" value="Dispatcher" style="rounded=1;whiteSpace=wrap;html=1;arcSize=3;labelPosition=center;verticalLabelPosition=top;align=center;verticalAlign=bottom;" vertex="1" parent="1">
          <mxGeometry x="150" y="90" width="170" height="130" as="geometry" />
        </mxCell>
        <mxCell id="alYm1xxPZwHSLxNLYQ0k-10" value="RpcEndpointVerifier" style="rounded=1;whiteSpace=wrap;html=1;arcSize=3;labelPosition=center;verticalLabelPosition=middle;align=center;verticalAlign=middle;" vertex="1" parent="1">
          <mxGeometry x="165" y="110" width="140" height="30" as="geometry" />
        </mxCell>
      </root>
    </mxGraphModel>
  </diagram>
</mxfile>
